# xmcd
#
# Track frame offsets:
#	150
#	11464
#	23448
#	34941
#	46653
#	58247
#	68285
#	78171
#	89483
#	99859
#	112043
#	121467
#	135354
#	148498
#	158351
#	170689
#	182864
#	193595
#	204591
#	216706
#	228394
#	240023
#	249637
#	261986
#	272569
#	285048
#	297292
#
# Disc length: 4108 seconds
#
# Revision: 0
# Processed by: cddbd v1.5.2PL0 Copyright (c) Steve Scherf et al.
# Submitted via: audiograbber 1.83.01
#
DISCID=75100a1b
DTITLE=Various Artist - Lets Party - Roll Lucky Seven - Vol 2
DYEAR=1900
DGENRE=
TTITLE0=Ray Johnson - Gonna Roll Lucky Seven Tonight
TTITLE1=Aldus Roger - One Scotch One Burbon One Beer
TTITLE2=Clarence Garlow - Crawfishin
TTITLE3=Red Macalister - Eggs And Grits
TTITLE4=King Perry - Everybody Jump
TTITLE5=Carlo and The Cupids - Crazy Rock
TTITLE6=H Bomb Ferguson - Rock H-Bomb Rock
TTITLE7=Jimmy Raney - You Drink Too Much Booze
TTITLE8=Drifters - Wine Headed Woman
TTITLE9=Gay Grosse - Swallow Dollow
TTITLE10=Eunice Davis - Lets Have A Party
TTITLE11=Milt Trenier - Straighten Up Baby
TTITLE12=Jack Cooley - Could But I Aint
TTITLE13=Buddy Lucas - My Pinch Hitter
TTITLE14=Elsie Von - I Cant Loose WIth The Stuff I Use
TTITLE15=Gene Tolson And His All Stars - I am Going To Let Him Ride
TTITLE16=Chester Guydon - Miss Fannie Brown
TTITLE17=Billy Haley w Haleys Comets - Straight Jacket
TTITLE18=Todd Rhodes Orchestra - Good Man
TTITLE19=Bill Haley w Haleys Comets - Crazy Man Crazy
TTITLE20=Eddie Cleanhead Vinson - Good Bread Alley
TTITLE21=Hound Dog Taylor - My Baby Is Coming Home
TTITLE22=Tampa Red - Dont Blame Shorty For That
TTITLE23=Charlie Hughes - Itsy Bitsy Puddin Pie
TTITLE24=Joe Robinson - Roll With The Boogie
TTITLE25=Brownie McGhee - I Am Gonna Move Across The River
TTITLE26=H Bomb Ferguson - Bookies Blues
EXTD=
EXTT0=
EXTT1=
EXTT2=
EXTT3=
EXTT4=
EXTT5=
EXTT6=
EXTT7=
EXTT8=
EXTT9=
EXTT10=
EXTT11=
EXTT12=
EXTT13=
EXTT14=
EXTT15=
EXTT16=
EXTT17=
EXTT18=
EXTT19=
EXTT20=
EXTT21=
EXTT22=
EXTT23=
EXTT24=
EXTT25=
EXTT26=
PLAYORDER=
